<svg width="9" height="227" viewBox="0 0 9 227" fill="none" xmlns="http://www.w3.org/2000/svg">
<path d="M8 0C8 2.56738 1.00001 2.56738 1.00001 5.13477C1.00001 7.70215 8 7.70215 8 10.2588C8 12.8154 1.00001 12.8262 1.00001 15.3936C1.00001 17.9609 8 17.9609 8 20.5283C8 23.0957 1.00001 23.0957 1.00001 25.6631C1.00001 28.2305 8 28.2197 8 30.7871C8 33.3545 1.00001 33.3545 1.00001 35.9111C1.00001 38.4678 8 38.4785 8 41.0459C8 43.6133 1.00001 43.6133 1.00001 46.1699C1.00001 48.7266 8 48.7266 8 51.2939C8 53.8613 1.00001 53.8613 1.00001 56.4287C1.00001 58.9961 8 58.9961 8 61.5635C8 64.1309 1.00001 64.1309 1.00001 66.6875C1.00001 69.2441 8 69.2549 8 71.8115C8 74.3682 1.00001 74.3789 1.00001 76.9463C1.00001 79.5137 8 79.5137 8 82.0811C8 84.6484 1.00001 84.6484 1.00001 87.2158C1.00001 89.7832 8 89.7832 8 92.3398C8 94.8965 1.00001 94.9072 1.00001 97.4746C1.00001 100.042 8 100.042 8 102.609C8 105.177 1.00001 105.177 1.00001 107.744C1.00001 110.312 8 110.312 8 112.879C7.99999 115.446 1 115.446 1 118.014C1 120.581 7.99999 120.581 7.99999 123.148C7.99999 125.716 1 125.716 1 128.283C1 130.851 7.99999 130.851 7.99999 133.418C7.99999 135.985 1 135.985 1 138.553C1 141.12 7.99999 141.12 7.99999 143.687C7.99999 146.255 1 146.255 1 148.822C1 151.39 7.99999 151.39 7.99999 153.957C7.99999 156.524 1 156.524 1 159.092C1 161.659 7.99999 161.659 7.99999 164.227C7.99999 166.794 1 166.794 1 169.361C1 171.929 7.99999 171.929 7.99999 174.496C7.99999 177.063 1 177.063 1 179.631C1 182.198 7.99999 182.198 7.99999 184.766C7.99999 187.333 1 187.333 1 189.9C1 192.468 7.99999 192.468 7.99999 195.035C7.99999 197.603 1 197.603 1 200.17C1 202.737 7.99999 202.737 7.99999 205.305C7.99999 207.872 1 207.872 1 210.439C1 213.007 7.99999 213.007 7.99999 215.574C7.99999 218.142 1 218.142 1 220.709C1 223.276 7.99999 223.276 7.99999 225.855C7.99999 228.433 1 228.422 1 231" stroke="white" stroke-miterlimit="10"/>
</svg>
